<svg width="1360" height="394" viewBox="0 0 1360 394" fill="none" xmlns="http://www.w3.org/2000/svg">
<g clip-path="url(#clip0_6852_6036)">
<rect width="1360" height="394" fill="#F8F6FA"/>
<g opacity="0.3">
<path d="M752.859 496.277C754.912 501.129 758.832 506.729 763.684 505.235C767.977 503.742 768.537 497.957 768.35 493.477C766.297 458.763 764.431 423.861 762.378 389.147C760.698 360.778 758.458 330.729 741.848 307.773C727.85 288.549 704.147 276.977 680.444 277.351C656.741 277.91 633.598 290.415 620.346 310.199C611.201 323.823 606.908 342.301 614.561 357.045C621.653 370.67 636.584 377.575 650.208 384.854C667.566 394.186 684.176 405.384 699.107 418.076C712.172 429.087 730.089 443.272 737.368 459.136C742.967 471.267 747.82 483.959 752.859 496.277Z" stroke="#1C0E3D" stroke-width="1.5" stroke-miterlimit="10" stroke-linecap="round"/>
<path d="M-224.379 -190.181C-162.975 -189.247 -83.4673 -177.116 -40.3539 -218.55C-17.2108 -240.76 24.0362 -224.895 40.2737 -197.273C56.3245 -169.651 55.3913 -135.682 57.2577 -103.767C59.1241 -71.8522 66.2163 -36.7643 91.7857 -17.5406C127.993 9.5219 181.745 -10.635 212.727 -43.4833C243.709 -76.3315 261.813 -119.632 292.421 -152.853C326.203 -189.621 373.422 -212.204 421.948 -223.216C470.661 -234.227 521.053 -234.6 570.885 -232.547C677.456 -228.441 784.586 -213.697 884.25 -175.996C983.915 -138.295 1076.3 -76.3315 1139.01 10.0818C1201.53 96.4952 1265.18 217.81 1208.81 308.143C1193.7 332.219 1189.22 361.708 1190.9 390.077C1192.58 418.446 1200.04 446.068 1207.32 473.504C1220.39 522.216 1236.44 575.221 1278.24 603.404C1293.92 614.042 1313.7 621.694 1321.36 639.052C1328.45 654.729 1322.29 674.326 1309.78 686.084C1297.28 697.843 1279.55 703.068 1262.38 703.815C1245.21 704.562 1228.04 701.389 1211.05 698.962C1135.46 687.764 1058.01 688.324 982.609 700.642C957.599 704.748 932.59 709.974 907.207 710.721C881.824 711.28 855.508 706.615 834.605 692.43C805.489 672.646 790.558 636.812 787.572 601.724C784.586 566.636 792.238 529.495 796.904 494.594C804.183 441.962 811.461 387.277 795.784 336.512C780.293 285.746 735.127 239.646 682.121 241.326C650.206 242.259 621.464 259.43 594.962 277.161C568.272 294.891 539.343 319.901 542.703 351.816C545.502 379.252 571.445 397.915 595.708 410.98C626.317 427.404 658.232 441.402 686.787 461.186C715.156 480.969 740.539 508.032 749.684 541.44C758.83 574.288 751.737 609.19 742.032 641.851C732.327 674.513 720.009 706.801 718.516 740.769C717.023 774.737 728.781 811.692 757.337 829.982C788.505 849.952 830.312 842.3 862.974 824.756C895.635 807.212 922.698 781.083 954.613 762.233C986.901 743.196 1023.86 731.997 1061.37 729.944C1108.03 727.518 1154.32 738.903 1200.79 745.249C1247.07 751.594 1296.72 752.341 1338.15 730.317C1379.4 708.294 1408.33 657.342 1391.72 613.482C1371 558.424 1297.09 544.986 1262.01 497.953C1233.64 459.879 1235.69 407.434 1245.02 360.961C1254.54 314.488 1270.03 267.829 1264.43 220.609C1245.02 59.7275 1128.19 -74.4652 982.982 -146.321C971.597 -151.92 959.839 -157.332 951.067 -166.291C942.295 -175.25 937.069 -189.061 941.735 -200.819C948.08 -216.497 967.677 -220.976 984.288 -223.402C1033 -230.308 1084.7 -236.84 1129.68 -217.243C1158.42 -204.738 1181.56 -182.529 1204.15 -160.692C1266.3 -100.968 1328.26 -41.2436 1390.41 18.6672C1419.71 46.8495 1450.32 75.965 1488.77 89.5896C1537.86 107.134 1595.9 97.8017 1641.44 120.945" stroke="#1C0E3D" stroke-width="1.5" stroke-miterlimit="10" stroke-linecap="round"/>
<path d="M-224.379 -111.042C-199.556 -115.521 -175.48 -126.16 -152.71 -137.545C-118.555 -154.529 -86.4535 -173.379 -48.3793 -175.619C-21.8768 -169.833 -1.3466 -147.623 10.5982 -123.173C22.5431 -98.7238 27.5823 -71.6614 34.4879 -45.3454C41.5801 -19.0295 51.2853 7.65975 70.3223 27.0701C101.118 58.4253 152.256 64.211 193.317 48.3468C234.377 32.4826 266.292 -1.8588 288.129 -39.9329C304.553 -68.4885 316.498 -99.8437 336.095 -126.346C353.452 -149.863 376.782 -169.086 403.284 -181.778C466.555 -212.013 540.837 -202.681 610.266 -192.603C695.559 -180.285 780.293 -186.817 860.921 -156.395C1002.39 -102.83 1151.7 12.3257 1177.83 161.263C1189.59 228.079 1172.23 296.202 1166.82 363.765C1160.66 440.846 1170.37 519.234 1195 592.583C1199.3 605.274 1203.96 617.966 1209.56 630.097C1217.21 646.521 1203.21 664.625 1185.48 661.826C1155.06 656.973 1125.01 650.254 1094.59 645.215C1049.05 637.749 1001.46 634.577 957.412 648.014C926.99 657.346 894.329 674.144 865.587 660.706C842.817 650.067 831.992 623.752 827.139 598.929C817.621 550.589 822.846 500.757 826.579 451.671C830.312 402.586 832.178 352.007 816.687 305.347C801.01 258.688 764.802 197.657 717.023 209.042C645.914 225.839 575.924 247.863 507.988 274.552C487.271 282.764 465.062 292.843 455.356 312.999C442.292 340.435 458.716 373.843 451.064 403.145C446.584 419.756 435.013 433.194 426.054 447.939C417.096 462.683 410.75 481.16 417.842 496.651C427.547 517.928 455.356 522.034 478.499 523.154C521.613 525.393 564.54 527.633 607.466 529.873C630.983 530.993 656.552 533.046 674.469 548.35C694.066 564.961 699.292 593.703 694.626 618.899C689.96 644.095 677.082 666.865 664.951 689.448C651.326 715.204 638.262 742.453 639.941 771.942C641.434 795.645 655.619 816.548 676.522 827.933C705.265 843.424 721.129 874.033 749.124 891.39C778.24 909.494 812.581 921.252 846.549 917.706C902.354 911.734 945.281 867.501 995.486 842.304C1099.44 790.232 1226.54 823.641 1338.34 791.539C1373.24 781.647 1405.72 757.944 1424.19 726.589C1442.67 695.42 1447.34 656.227 1436.33 621.512C1427.74 594.449 1410.38 570.186 1405.9 542.191C1398.06 495.158 1427.74 449.058 1426.62 401.466C1425.13 336.516 1367.83 283.884 1362.04 218.934C1347.11 55.4391 1171.86 -42.5458 1042.71 -143.704C1028.71 -154.529 1012.84 -170.393 1019 -187.004C1022.74 -197.455 1034.49 -203.241 1045.69 -203.428C1056.7 -203.614 1067.34 -199.322 1077.61 -194.842C1160.29 -158.261 1236.44 -107.123 1301.76 -44.5989C1335.91 -11.9372 1367.08 24.0839 1402.92 54.8791C1438.75 85.861 1480.37 111.99 1526.84 120.762C1544.39 124.122 1562.49 124.868 1579.48 130.654C1596.46 136.253 1612.7 148.198 1617.36 165.555C1623.52 188.325 1608.03 210.535 1598.51 232.185C1583.4 265.967 1581.72 305.534 1594.22 340.435C1603.55 366.191 1620.35 389.148 1641.81 405.945" stroke="#1C0E3D" stroke-width="1.5" stroke-miterlimit="10" stroke-linecap="round"/>
<path d="M582.268 44.6134C590.107 41.6272 597.945 37.8944 603.171 31.5487C608.397 25.2031 610.264 15.1246 605.411 8.40565C598.879 -0.552966 585.441 0.566867 574.616 2.43325C550.353 6.91256 526.276 11.3919 502.014 15.8712C489.509 18.1108 477.004 20.5371 464.499 22.7768C456.101 24.2699 437.437 24.2699 430.905 30.8022C420.826 41.0673 440.236 45.1733 448.448 47.5996C467.112 53.0121 486.709 56.5582 506.12 57.1181C532.249 58.0513 558.192 53.9453 582.268 44.6134Z" stroke="#1C0E3D" stroke-width="1.5" stroke-miterlimit="10" stroke-linecap="round"/>
<path d="M413.552 5.79086C403.1 8.59043 392.275 11.5767 383.69 18.2956C375.105 25.0146 369.132 36.2129 371.932 46.6646C375.291 59.356 389.289 65.7016 401.981 69.8077C445.654 83.8055 491.94 89.9646 537.666 88.0982C561.369 87.165 585.632 83.6189 606.536 72.6072C627.439 61.409 644.797 41.2521 647.409 17.7357C650.209 -7.64705 628.746 -41.0552 600.75 -38.6289C561.369 -35.2695 519.936 -21.085 481.675 -11.7531C459.092 -6.15395 436.322 -0.368189 413.552 5.79086Z" stroke="#1C0E3D" stroke-width="1.5" stroke-miterlimit="10" stroke-linecap="round"/>
<path d="M988.582 163.315C977.57 161.822 967.865 156.223 958.347 150.624C881.265 104.151 811.276 46.8533 743.713 -12.6842C735.688 -19.7764 727.476 -27.2419 721.69 -36.3872C716.091 -45.7191 713.291 -57.2906 717.024 -67.3691C720.383 -76.5143 728.409 -83.4199 737.181 -87.3393C745.953 -91.2587 755.845 -92.9385 765.363 -94.2449C805.677 -100.031 849.537 -103.763 884.251 -82.6734C911.127 -66.2493 927.738 -37.507 943.229 -10.0712C962.266 23.7102 981.116 57.3051 1000.15 91.0865C1012.84 113.296 1039.16 169.848 988.582 163.315Z" stroke="#1C0E3D" stroke-width="1.5" stroke-miterlimit="10" stroke-linecap="round"/>
<path d="M-224.379 -72.4134C-195.263 -78.9457 -168.947 -95.7431 -141.885 -108.808C-110.903 -123.925 -73.9487 -134.75 -42.5936 -120.753C-21.6901 -111.421 -6.57246 -92.197 2.57279 -71.1069C11.7181 -50.2034 15.4508 -27.247 19.1836 -4.66379C21.7965 11.7603 24.4094 27.8112 26.8357 44.0487C30.5685 67.7517 48.1125 86.7888 71.6288 92.2013C71.8155 92.2013 71.8155 92.2013 72.0021 92.3879C86.3732 95.7474 101.678 100.227 110.636 111.798C119.035 122.81 120.155 137.741 127.06 149.686C136.206 165.363 154.496 173.762 172.413 175.628C190.517 177.495 208.434 173.762 226.165 169.843C248.375 165.177 270.958 160.137 290.928 149.312C310.899 138.301 328.256 120.384 332.735 97.9871C338.148 71.1112 324.523 42.7422 330.869 16.053C337.215 -10.8229 362.784 -29.6733 389.473 -37.1388C416.162 -44.791 444.345 -43.4845 471.967 -44.6043C537.664 -47.2172 602.614 -64.0147 661.405 -93.5034C713.85 -119.819 768.535 -157.334 825.646 -144.456C859.427 -136.803 886.863 -112.541 911.126 -87.7177C964.131 -33.406 1010.23 27.6246 1047.93 93.5078C1056.89 109.185 1065.66 125.61 1067.72 143.527C1069.96 161.444 1064.17 181.414 1049.42 191.679C1031.51 203.997 1007.24 199.331 986.715 192.426C939.495 176.562 894.889 152.672 855.508 122.063C819.86 94.2543 784.959 59.353 739.793 55.247C694.999 51.1409 654.499 78.95 612.132 93.5078C573.125 106.946 531.318 109.559 490.631 116.651C449.944 123.743 408.137 136.248 378.835 165.363C307.353 235.726 197.796 243.751 104.477 280.706C81.1474 290.038 56.5112 300.116 41.5801 320.273C28.7021 337.817 24.7827 360.587 25.5292 382.237C26.4624 403.887 31.5017 425.35 34.8611 446.813C40.8336 485.261 41.0202 524.828 35.2344 563.462C26.2758 623.559 1.45296 684.03 -45.7664 722.291C-95.0388 762.418 -160.735 773.056 -224.379 780.149" stroke="#1C0E3D" stroke-width="3" stroke-miterlimit="10" stroke-linecap="round"/>
<path d="M-224.379 -42.5512C-198.436 -44.0443 -173.987 -58.2288 -150.47 -70.1736C-123.781 -83.6115 -92.2393 -94.8098 -64.8035 -83.0516C-30.8354 -68.4938 -19.4505 -26.127 -18.8906 10.6406C-18.144 47.5949 -23.5565 86.6023 -6.94574 119.451C6.49219 146.14 34.3012 169.283 30.0086 198.772C27.7689 214.636 16.384 227.514 7.79866 240.952C-22.25 287.611 -22.6233 347.149 -16.091 402.394C-9.55867 457.452 2.75944 513.07 -5.45263 567.941C-13.6647 622.44 -42.9669 673.578 -85.8936 708.293C-124.901 739.835 -174.547 757.379 -224.379 757.939" stroke="#1C0E3D" stroke-width="1.5" stroke-miterlimit="10" stroke-linecap="round"/>
<path d="M70.3218 123.743C82.4532 130.276 92.1584 141.474 96.6377 154.725C102.05 170.403 100.184 187.387 97.5709 203.624C96.2644 212.023 94.3981 220.608 89.3588 227.327C84.3196 234.046 74.9877 238.525 67.1489 235.166C60.43 232.366 56.8839 224.901 55.764 217.809C54.8308 210.716 55.9506 203.438 55.9506 196.159C55.9506 178.428 49.045 160.698 36.9136 148.006C33.1808 144.087 28.7015 140.354 26.4619 135.315C14.517 109.372 60.0567 118.331 70.3218 123.743Z" stroke="#1C0E3D" stroke-width="1.5" stroke-miterlimit="10" stroke-linecap="round"/>
<path d="M857.939 -45.9119C876.23 -35.4602 889.854 -18.4761 901.986 -1.30546C918.597 22.2109 933.341 46.8471 946.406 72.4165C952.005 83.6148 939.314 94.8131 928.862 88.0941C921.956 83.6148 915.237 78.5756 908.892 73.5363C877.536 49.2734 846.181 24.8239 815.013 0.560923C804.934 -7.27787 777.498 -21.0891 775.072 -34.527C772.273 -49.8313 794.669 -53.9374 805.307 -55.6171C821.172 -57.8568 844.128 -56.3637 857.939 -45.9119Z" stroke="#1C0E3D" stroke-width="1.5" stroke-miterlimit="10" stroke-linecap="round"/>
<path d="M-224.379 869.362C-142.258 848.459 -50.8056 871.415 31.5017 846.966C71.4422 835.207 107.463 812.624 144.791 794.147C182.118 775.67 223.365 760.552 264.986 765.405C318.551 771.564 363.717 810.571 391.153 857.044C418.589 903.33 431.28 956.895 443.412 1009.34C448.451 1030.99 457.969 1051.15 465.995 1071.68C475.513 1095.57 500.896 1109.38 525.906 1103.78C528.892 1103.03 532.065 1102.29 535.051 1101.54C554.088 1096.5 572.752 1089.97 592.162 1088.1C611.759 1086.24 632.662 1089.41 647.593 1102.1C660.285 1112.92 667.004 1128.98 676.709 1142.41C686.414 1156.04 704.145 1172.09 718.143 1163.13C741.472 1148.01 764.615 1133.08 787.945 1117.96C797.837 1111.62 808.662 1104.9 820.42 1105.27C834.045 1105.65 845.616 1115.54 853.642 1126.74C861.667 1137.75 867.266 1150.44 875.852 1161.08C897.688 1187.58 938.002 1195.79 969.544 1182.54C1001.27 1169.29 1023.11 1136.81 1026.66 1102.66C1028.15 1086.98 1026.28 1070.74 1018.26 1057.12C1008.74 1041.07 991.94 1030.43 974.21 1024.46C956.479 1018.49 937.815 1016.62 919.338 1014.01C875.852 1008.03 832.738 998.142 791.118 984.518C752.857 972.013 710.864 942.151 671.856 952.603C637.702 961.748 600.001 943.644 579.657 914.902C559.127 886.16 553.715 848.645 557.261 813.557C560.807 778.283 572.565 744.688 583.763 711.093C589.736 693.549 595.148 673.206 585.816 657.155C577.791 643.53 561.553 637.744 546.622 632.892C523.666 625.426 497.723 613.668 473.834 610.682C409.07 602.657 339.827 561.783 278.424 583.806C240.536 597.431 202.462 610.869 164.574 624.493C154.496 628.039 141.431 630.839 135.832 620.014C133.779 615.908 133.593 611.055 135.272 606.576C148.524 570.741 181.185 547.785 212.354 526.508C250.615 500.379 284.956 466.224 324.523 442.335C351.212 426.097 356.438 390.076 356.812 358.907C357.371 327.739 357.371 292.651 379.581 270.628C391.526 258.869 407.764 253.084 423.628 247.671C509.295 217.996 591.229 189.44 676.149 160.138C698.919 152.299 723.742 152.673 746.138 161.631C800.823 183.468 847.483 225.835 873.425 278.84C887.05 306.649 895.075 336.884 909.82 364.133C924.377 391.382 947.521 416.579 977.943 422.551C999.033 426.657 1020.5 421.058 1041.77 418.072C1063.05 415.085 1086.57 415.272 1103.36 428.71C1125.76 446.627 1127.25 480.409 1129.87 507.658C1130.61 516.616 1130.05 525.388 1127.81 534.16C1124.83 545.545 1119.6 559.17 1107.84 558.61C1065.48 555.997 1022.36 567.569 986.715 590.525C967.118 603.216 948.64 619.827 925.497 623.56C904.78 626.919 882.384 618.147 869.506 601.537C856.441 584.926 849.349 558.05 857.188 538.64C898.995 436.175 879.771 311.315 808.849 226.208C795.971 210.717 781.226 196.346 763.309 186.827C745.578 177.495 721.875 170.963 702.838 177.682C628.556 203.625 554.461 229.567 480.366 255.323C456.849 263.535 431.093 273.427 419.335 295.451C409.257 313.928 411.683 336.324 411.87 357.228C412.056 374.398 409.63 394.555 399.552 408.18C393.766 416.019 389.287 424.604 385.367 433.563C374.542 459.505 355.318 481.902 331.242 496.273C319.111 503.552 303.62 511.764 304.553 526.508C304.926 533.041 308.659 538.826 314.071 542.559C324.71 550.025 337.401 549.838 349.719 549.838C437.812 549.651 522.359 577.834 609.893 585.859C627.623 587.539 645.354 603.216 648.713 620.76C651.886 637.558 647.034 654.915 639.941 670.406C632.849 686.084 623.331 700.641 616.798 716.506C599.068 759.806 605.04 810.944 628.37 851.445C651.699 891.945 690.707 922.181 734.38 938.978C776.934 955.402 823.406 959.508 868.759 955.589C921.391 951.109 971.97 930.953 1012.66 897.358C1050.36 866.189 1099.82 853.125 1148.34 847.712C1197.43 842.113 1247.26 843.233 1296.16 835.954C1345.06 828.675 1394.7 811.691 1428.86 775.857C1470.67 732.37 1495.68 651.182 1462.64 600.604C1444.16 572.235 1444.16 535.653 1449.02 502.059C1453.87 468.464 1462.64 434.869 1459.28 401.274C1455.55 363.947 1437.26 330.165 1424.01 295.077C1410.01 258.123 1401.8 215.196 1422.14 180.482C1435.58 157.338 1459.84 142.034 1486.72 139.795C1514.34 137.368 1543.64 146.513 1562.87 166.484C1571.64 175.629 1577.61 187.947 1576.86 200.452C1575.18 224.155 1551.67 240.019 1541.78 261.669C1531.7 283.506 1536.18 309.635 1546.81 331.098C1557.45 352.562 1573.69 370.852 1587.88 390.076C1602.25 409.3 1615.12 430.95 1617.36 454.839C1620.91 489.927 1601.31 522.962 1595.9 557.677C1588.81 602.47 1607.85 650.063 1642.37 679.178" stroke="#1C0E3D" stroke-width="3" stroke-miterlimit="10" stroke-linecap="round"/>
<path d="M662.156 96.1229C707.136 80.4453 756.782 86.2311 796.722 111.987C818.559 126.172 840.396 140.356 862.046 154.727C904.226 182.91 946.966 211.838 995.119 227.329C1019.75 235.168 1049.06 238.714 1069.21 222.663C1086.01 209.412 1091.61 185.709 1089.18 164.432C1086.01 137.743 1072.39 113.667 1058.95 90.3371C1038.79 55.4358 1018.63 20.7211 998.478 -14.1801C990.079 -19.0327 990.639 -33.2172 998.478 -38.8163C1006.32 -44.4155 1017.52 -42.5491 1025.54 -37.1366C1033.57 -31.7241 1038.98 -23.512 1044.02 -15.4866C1054.1 0.190981 1064.17 15.8686 1074.44 31.3595C1099.45 70.1802 1124.83 109.374 1139.58 153.234C1154.32 196.907 1157.68 246.366 1139.02 288.547C1126.51 316.729 1120.17 351.07 1096.65 371.041C1081.72 383.732 1062.68 390.638 1043.46 394.37C1019.94 399.036 994.932 399.036 973.095 389.331C951.259 379.626 934.461 360.962 922.703 340.245C910.945 319.528 903.853 296.572 896.76 273.802C880.15 220.237 831.25 178.803 780.858 154.167C730.653 129.531 667.196 128.038 620.163 158.087C562.865 194.854 487.65 196.907 424.006 220.984C390.972 233.488 355.324 249.539 340.019 281.454C330.688 300.865 330.501 323.261 326.582 344.538C315.01 409.115 266.111 465.666 203.96 486.569C142.557 507.286 96.4569 561.598 79.6595 624.122C82.6457 631.214 70.5142 640.172 62.8621 639.986C55.2099 639.799 48.8643 633.08 46.8112 625.801C44.7582 618.522 46.0647 610.497 47.9311 603.218C61.7423 551.146 105.042 512.512 148.529 480.784C192.016 449.055 239.422 419.38 268.91 374.4C281.228 355.736 272.83 335.019 275.629 312.809C278.802 287.8 295.04 265.963 314.823 250.472C334.607 234.981 358.123 225.09 381.453 215.758C404.783 206.426 428.486 197.281 449.203 183.096C509.86 141.663 583.022 124.865 652.078 99.8556C655.624 98.3625 658.984 97.2427 662.156 96.1229Z" stroke="#1C0E3D" stroke-width="1.5" stroke-miterlimit="10" stroke-linecap="round"/>
<path d="M1310.91 477.053C1290.75 469.961 1280.86 446.818 1279.55 425.541C1278.43 409.49 1280.67 393.44 1283.1 377.575C1288.89 336.888 1294.86 296.201 1300.64 255.701C1302.14 245.436 1308.11 231.998 1318 234.797C1323.23 236.291 1326.03 241.703 1328.08 246.742C1339.65 273.245 1351.41 299.747 1362.98 326.437C1371.94 346.967 1386.87 370.67 1387.99 393.626C1389.67 429.647 1354.4 492.358 1310.91 477.053Z" stroke="#1C0E3D" stroke-width="1.5" stroke-miterlimit="10" stroke-linecap="round"/>
<path d="M491.008 -349.566C515.831 -320.824 552.038 -303.467 587.873 -289.656C691.83 -249.342 811.279 -196.71 916.916 -232.544C1030.2 -270.992 1163.28 -243.929 1252.68 -164.235C1294.48 -126.907 1326.4 -80.0612 1363.17 -37.6944C1399.75 4.67239 1443.79 44.053 1497.92 58.6107C1544.77 71.1155 1596.84 64.2099 1642 79.3276" stroke="#1C0E3D" stroke-width="3" stroke-miterlimit="10" stroke-linecap="round"/>
<path d="M523.48 -349.566C550.17 -330.343 584.511 -324.93 617.546 -323.25C651.887 -321.571 686.789 -323.624 720.197 -315.598C762.004 -305.52 798.585 -280.51 839.085 -266.326C886.491 -249.902 939.123 -248.969 986.902 -263.9C1044.95 -282.003 1110.83 -278.831 1168.13 -258.674C1221.32 -240.01 1263.69 -198.39 1294.85 -151.544C1321.54 -111.23 1363.16 -81.9276 1399.75 -50.3858C1419.53 -33.4018 1441.93 -15.8578 1468.24 -15.4845C1481.31 -15.2979 1494.18 -19.4039 1507.06 -17.5376C1522.37 -15.2979 1535.06 -4.84619 1547.94 3.92579C1575.93 23.1495 1608.41 35.6542 1642 40.8801" stroke="#1C0E3D" stroke-width="1.5" stroke-miterlimit="10" stroke-linecap="round"/>
<path d="M695 -349.566C779.547 -316.158 871.559 -301.787 962.265 -307.946C1012.47 -311.306 1062.68 -320.824 1112.88 -317.465C1216.84 -310.372 1314.82 -243.183 1358.5 -148.371C1376.04 -110.67 1415.8 -82.3009 1457.23 -79.8746C1469.17 -79.1281 1481.31 -80.2479 1493.06 -77.8216C1510.42 -74.0888 1525.73 -61.9574 1533.38 -46.0931C1551.29 -8.39229 1596.46 7.47192 1642 11.9512" stroke="#1C0E3D" stroke-width="1.5" stroke-miterlimit="10" stroke-linecap="round"/>
</g>
</g>
<defs>
<clipPath id="clip0_6852_6036">
<rect width="1360" height="394" fill="white"/>
</clipPath>
</defs>
</svg>
