<svg width="376" height="204" viewBox="0 0 376 204" fill="none" xmlns="http://www.w3.org/2000/svg">
<g clip-path="url(#clip0_6854_6255)">
<rect width="376" height="204" fill="#FAF6F8"/>
<g opacity="0.3">
<path d="M203.477 71.3056C204.198 73.0109 205.575 74.9785 207.281 74.4538C208.789 73.9291 208.986 71.8959 208.92 70.3218C208.199 58.1227 207.543 45.8579 206.822 33.6588C206.231 23.6895 205.444 13.1301 199.607 5.06289C194.688 -1.69256 186.358 -5.75895 178.029 -5.62778C169.699 -5.43102 161.567 -1.03669 156.91 5.91551C153.696 10.7034 152.188 17.1965 154.877 22.3778C157.369 27.1657 162.616 29.5924 167.404 32.1503C173.503 35.4296 179.341 39.3648 184.588 43.8247C189.179 47.6943 195.475 52.6789 198.033 58.2538C200.001 62.517 201.706 66.9769 203.477 71.3056Z" stroke="#AF1143" stroke-width="1.5" stroke-miterlimit="10" stroke-linecap="round"/>
<path d="M-139.938 -169.924C-118.359 -169.596 -90.4194 -165.333 -75.2689 -179.893C-67.1361 -187.698 -52.6414 -182.123 -46.9353 -172.416C-41.2949 -162.709 -41.6228 -150.772 -40.9669 -139.557C-40.3111 -128.342 -37.8188 -116.011 -28.8334 -109.256C-16.1095 -99.7458 2.77952 -106.829 13.6669 -118.373C24.5544 -129.916 30.9163 -145.132 41.6725 -156.806C53.5437 -169.727 70.1372 -177.663 87.1898 -181.533C104.308 -185.402 122.016 -185.533 139.528 -184.812C176.978 -183.369 214.625 -178.188 249.648 -164.939C284.672 -151.691 317.137 -129.916 339.175 -99.5491C361.146 -69.1824 383.511 -26.5509 363.704 5.19316C358.392 13.6539 356.817 24.0166 357.408 33.9858C357.998 43.955 360.621 53.6619 363.179 63.3031C367.77 80.4213 373.411 99.048 388.102 108.952C393.612 112.69 400.564 115.379 403.253 121.479C405.745 126.988 403.581 133.875 399.187 138.007C394.792 142.139 388.561 143.975 382.527 144.237C376.493 144.5 370.459 143.385 364.491 142.532C337.928 138.597 310.71 138.794 284.213 143.122C275.424 144.565 266.635 146.402 257.716 146.664C248.796 146.861 239.548 145.221 232.202 140.237C221.971 133.284 216.724 120.692 215.674 108.361C214.625 96.031 217.314 82.9792 218.954 70.7144C221.512 52.2189 224.07 33.002 218.56 15.1624C213.117 -2.67726 197.245 -18.8772 178.618 -18.2869C167.403 -17.959 157.302 -11.925 147.989 -5.69427C138.61 0.536487 128.444 9.32513 129.625 20.5405C130.608 30.1818 139.725 36.7405 148.251 41.3315C159.007 47.1032 170.223 52.0222 180.258 58.9744C190.227 65.9266 199.147 75.4367 202.36 87.1768C205.574 98.72 203.082 110.985 199.671 122.463C196.261 133.94 191.932 145.287 191.407 157.224C190.883 169.16 195.015 182.147 205.049 188.574C216.002 195.592 230.694 192.903 242.172 186.738C253.649 180.572 263.159 171.39 274.375 164.766C285.721 158.076 298.707 154.141 311.89 153.42C328.287 152.567 344.553 156.568 360.884 158.798C377.149 161.028 394.595 161.29 409.156 153.551C423.65 145.811 433.816 127.906 427.979 112.493C420.699 93.1452 394.727 88.4229 382.396 71.895C372.427 58.5153 373.149 40.0854 376.428 23.7543C379.773 7.42312 385.217 -8.9736 383.249 -25.5671C376.428 -82.103 335.371 -129.26 284.344 -154.511C280.343 -156.478 276.211 -158.381 273.129 -161.529C270.046 -164.677 268.21 -169.53 269.849 -173.662C272.079 -179.172 278.966 -180.746 284.803 -181.598C301.921 -184.025 320.089 -186.321 335.895 -179.434C345.996 -175.04 354.128 -167.235 362.064 -159.561C383.905 -138.573 405.68 -117.585 427.52 -96.5321C437.817 -86.6285 448.573 -76.3969 462.084 -71.6091C479.334 -65.4439 499.731 -68.7232 515.734 -60.5905" stroke="#AF1143" stroke-width="1.5" stroke-miterlimit="10" stroke-linecap="round"/>
<path d="M240.797 158.078C243.093 157.816 245.454 157.423 247.749 157.882C250.045 158.341 252.275 159.915 252.668 162.21C253.258 165.686 249.717 168.244 246.569 169.884C241.256 172.639 235.812 175.393 229.975 176.771C224.138 178.148 217.776 178.148 212.332 175.525C206.889 172.967 202.625 167.523 202.494 161.489C202.429 158.078 203.937 154.471 206.495 152.176C210.299 148.831 212.201 151.192 216.005 153.225C223.482 157.226 232.271 158.931 240.797 158.078Z" stroke="#AF1143" stroke-width="1.5" stroke-miterlimit="10" stroke-linecap="round"/>
<path d="M-139.938 -142.114C-131.214 -143.689 -122.754 -147.427 -114.752 -151.428C-102.75 -157.396 -91.4688 -164.02 -78.0891 -164.808C-68.7757 -162.774 -61.5612 -154.969 -57.3636 -146.378C-53.1661 -137.786 -51.3952 -128.276 -48.9685 -119.028C-46.4762 -109.78 -43.0657 -100.401 -36.3758 -93.5802C-25.554 -82.5616 -7.5832 -80.5284 6.84591 -86.1033C21.275 -91.6782 32.4904 -103.746 40.164 -117.126C45.9357 -127.161 50.1332 -138.179 57.0198 -147.493C63.1194 -155.757 71.3178 -162.512 80.6311 -166.972C102.865 -177.597 128.969 -174.318 153.367 -170.776C183.34 -166.447 213.117 -168.743 241.45 -158.052C291.165 -139.229 343.634 -98.7615 352.817 -46.4232C356.949 -22.9431 350.849 0.996099 348.947 24.7385C346.783 51.8259 350.193 79.3724 358.851 105.148C360.359 109.608 361.999 114.068 363.966 118.331C366.655 124.103 361.736 130.465 355.506 129.481C344.815 127.776 334.256 125.414 323.565 123.644C307.562 121.02 290.837 119.905 275.359 124.627C264.668 127.907 253.19 133.809 243.09 129.087C235.088 125.349 231.284 116.101 229.579 107.378C226.234 90.391 228.07 72.8793 229.382 55.6299C230.694 38.3806 231.35 20.6066 225.906 4.20984C220.397 -12.1869 207.673 -33.6338 190.883 -29.633C165.894 -23.7302 141.299 -15.9909 117.425 -6.61199C110.145 -3.72617 102.34 -0.184472 98.9299 6.89891C94.3388 16.5402 100.11 28.2802 97.4214 38.5774C95.8473 44.4146 91.7809 49.1368 88.6327 54.3182C85.4846 59.4996 83.2546 65.9927 85.7469 71.4364C89.1574 78.9133 98.9299 80.3562 107.063 80.7497C122.213 81.5368 137.298 82.3238 152.383 83.1109C160.647 83.5044 169.633 84.2258 175.929 89.604C182.815 95.4412 184.652 105.542 183.012 114.396C181.373 123.25 176.847 131.252 172.584 139.188C167.796 148.239 163.205 157.814 163.795 168.177C164.32 176.507 169.305 183.852 176.65 187.853C186.751 193.297 192.326 204.053 202.164 210.153C212.395 216.515 224.463 220.647 236.4 219.4C256.01 217.302 271.095 201.757 288.738 192.903C325.27 174.605 369.935 186.345 409.221 175.064C421.486 171.588 432.898 163.258 439.391 152.239C445.884 141.286 447.524 127.513 443.654 115.314C440.637 105.804 434.538 97.2776 432.964 87.4396C430.209 70.9117 440.637 54.7117 440.244 37.9871C439.719 15.1629 419.584 -3.33265 417.551 -26.1569C412.304 -83.611 350.718 -118.044 305.332 -153.592C300.413 -157.396 294.838 -162.971 297.002 -168.808C298.314 -172.481 302.446 -174.514 306.381 -174.58C310.251 -174.646 313.989 -173.137 317.596 -171.563C346.651 -158.708 373.411 -140.737 396.366 -118.766C408.369 -107.288 419.322 -94.6296 431.914 -83.8077C444.507 -72.9203 459.133 -63.7382 475.464 -60.6556C481.629 -59.475 487.991 -59.2127 493.96 -57.1795C499.928 -55.2119 505.634 -51.0143 507.274 -44.9147C509.438 -36.9131 503.994 -29.1083 500.649 -21.5002C495.337 -9.62898 494.747 4.27544 499.141 16.5402C502.42 25.5912 508.323 33.6583 515.866 39.5612" stroke="#AF1143" stroke-width="1.5" stroke-miterlimit="10" stroke-linecap="round"/>
<path d="M-139.937 -128.538C-129.706 -130.834 -120.458 -136.736 -110.948 -141.328C-100.061 -146.64 -87.0745 -150.444 -76.0559 -145.525C-68.7102 -142.246 -63.3976 -135.49 -60.1839 -128.079C-56.9701 -120.733 -55.6584 -112.666 -54.3466 -104.73C-53.4284 -98.9584 -52.5102 -93.3179 -51.6576 -87.6119C-50.3458 -79.2823 -44.1807 -72.5925 -35.9167 -70.6904C-35.8511 -70.6904 -35.8511 -70.6904 -35.7855 -70.6248C-30.7354 -69.4443 -25.3572 -67.8702 -22.2091 -63.8038C-19.2577 -59.9342 -18.8641 -54.6872 -16.4374 -50.4897C-13.2237 -44.9804 -6.79615 -42.029 -0.499808 -41.3731C5.86212 -40.7172 12.1584 -42.029 18.3892 -43.4063C26.194 -45.046 34.1301 -46.8168 41.1479 -50.6209C48.1656 -54.4905 54.2652 -60.7868 55.8393 -68.6572C57.7413 -78.1018 52.9535 -88.071 55.1834 -97.4499C57.4134 -106.894 66.3988 -113.519 75.7777 -116.142C85.1566 -118.831 95.0603 -118.372 104.767 -118.766C127.854 -119.684 150.678 -125.587 171.338 -135.949C189.768 -145.197 208.985 -158.38 229.054 -153.855C240.925 -151.166 250.567 -142.639 259.093 -133.916C277.72 -114.83 293.92 -93.3835 307.168 -70.2313C310.316 -64.722 313.399 -58.9504 314.12 -52.654C314.907 -46.3577 312.874 -39.3399 307.693 -35.7326C301.397 -31.4039 292.87 -33.0436 285.656 -35.4703C269.062 -41.0452 253.387 -49.4403 239.548 -60.1965C227.021 -69.969 214.756 -82.2337 198.884 -83.6766C183.143 -85.1196 168.911 -75.3471 154.023 -70.2313C140.315 -65.5091 125.624 -64.5909 111.326 -62.0986C97.0279 -59.6063 82.3364 -55.2119 72.0393 -44.9804C46.9195 -20.2541 8.42 -17.4339 -24.3734 -4.44769C-32.5718 -1.16835 -41.2293 2.37333 -46.4762 9.45671C-51.0017 15.6219 -52.379 23.6235 -52.1167 31.2316C-51.7887 38.8396 -50.0179 46.3821 -48.8373 53.9246C-46.7386 67.4355 -46.673 81.3399 -48.7062 94.9164C-51.8543 116.035 -60.5774 137.286 -77.1709 150.731C-94.4858 164.832 -117.572 168.57 -139.938 171.063" stroke="#AF1143" stroke-width="3" stroke-miterlimit="10" stroke-linecap="round"/>
<path d="M-139.938 202.412C-111.079 195.066 -78.9417 203.133 -50.0179 194.541C-35.9823 190.409 -23.324 182.473 -10.2067 175.98C2.91071 169.487 17.4054 164.175 32.0313 165.88C50.8547 168.044 66.7267 181.752 76.368 198.083C86.0093 214.349 90.4692 233.172 94.7323 251.602C96.5032 259.21 99.8481 266.294 102.668 273.508C106.013 281.903 114.933 286.757 123.722 284.789C124.771 284.527 125.886 284.264 126.935 284.002C133.625 282.231 140.184 279.936 147.005 279.28C153.892 278.624 161.237 279.739 166.484 284.199C170.944 288.003 173.305 293.643 176.716 298.366C180.126 303.153 186.357 308.794 191.276 305.646C199.475 300.333 207.607 295.086 215.806 289.774C219.282 287.544 223.086 285.183 227.218 285.314C232.006 285.445 236.072 288.921 238.892 292.856C241.712 296.726 243.68 301.186 246.697 304.924C254.371 314.238 268.538 317.123 279.622 312.467C290.771 307.81 298.445 296.398 299.691 284.395C300.216 278.886 299.56 273.18 296.74 268.392C293.395 262.752 287.492 259.013 281.261 256.915C275.031 254.816 268.472 254.16 261.979 253.242C246.697 251.143 231.547 247.667 216.921 242.879C203.475 238.485 188.718 227.991 175.011 231.664C163.008 234.877 149.76 228.515 142.611 218.415C135.396 208.315 133.494 195.132 134.74 182.801C135.986 170.406 140.118 158.6 144.054 146.794C146.152 140.629 148.054 133.48 144.775 127.84C141.955 123.052 136.249 121.019 131.002 119.313C122.935 116.69 113.818 112.558 105.423 111.508C82.6643 108.688 58.3316 94.3247 36.7535 102.064C23.4394 106.852 10.0597 111.574 -3.25447 116.362C-6.79616 117.608 -11.3872 118.592 -13.3548 114.788C-14.0763 113.345 -14.1419 111.64 -13.5516 110.066C-8.89493 97.4729 2.58277 89.4057 13.5358 81.9288C26.9811 72.7466 39.0491 60.7442 52.9535 52.3491C62.3324 46.6431 64.1688 33.9848 64.3 23.0318C64.4968 12.0788 64.4968 -0.251542 72.3016 -7.99079C76.4992 -12.1228 82.2052 -14.156 87.7801 -16.058C117.884 -26.4863 146.677 -36.5211 176.519 -46.8182C184.521 -49.5729 193.244 -49.4417 201.114 -46.2935C220.331 -38.6199 236.728 -23.7316 245.844 -5.10495C250.632 4.66749 253.453 15.2926 258.634 24.8682C263.75 34.4439 271.882 43.2982 282.573 45.3969C289.984 46.8398 297.527 44.8722 305.004 43.8228C312.481 42.7734 320.745 42.839 326.648 47.5613C334.518 53.8576 335.043 65.7288 335.961 75.3045C336.223 78.4527 336.026 81.5353 335.239 84.6179C334.19 88.6187 332.354 93.4065 328.222 93.2098C313.333 92.2915 298.183 96.3579 285.656 104.425C278.769 108.885 272.276 114.722 264.143 116.034C256.863 117.215 248.993 114.132 244.467 108.295C239.876 102.458 237.384 93.013 240.138 86.192C254.83 50.1848 248.074 6.30715 223.151 -23.6005C218.626 -29.0442 213.445 -34.0944 207.148 -37.4393C200.917 -40.7186 192.588 -43.0142 185.898 -40.653C159.794 -31.5365 133.757 -22.4199 107.719 -13.3689C99.4546 -10.4831 90.4036 -7.00698 86.2716 0.732273C82.7299 7.22537 83.5826 15.0958 83.6481 22.4415C83.7137 28.4755 82.8611 35.5589 79.3194 40.3467C77.2862 43.1014 75.7121 46.1184 74.3348 49.2666C70.5308 58.3831 63.7753 66.2536 55.3146 71.3037C51.0515 73.8616 45.6078 76.7474 45.9357 81.9288C46.0669 84.2243 47.3786 86.2575 49.2806 87.5693C53.0191 90.1928 57.479 90.1272 61.8077 90.1272C92.7647 90.0616 122.476 99.9652 153.236 102.785C159.467 103.376 165.697 108.885 166.878 115.05C167.993 120.953 166.288 127.053 163.795 132.496C161.303 138.006 157.958 143.121 155.663 148.696C149.432 163.912 151.531 181.883 159.729 196.116C167.927 210.348 181.635 220.973 196.982 226.876C211.936 232.647 228.267 234.09 244.205 232.713C262.7 231.139 280.474 224.056 294.772 212.25C308.021 201.297 325.401 196.706 342.454 194.804C359.703 192.836 377.215 193.23 394.399 190.672C411.583 188.114 429.029 182.146 441.031 169.553C455.722 154.271 464.511 125.741 452.902 107.967C446.409 97.9976 446.409 85.1426 448.114 73.3369C449.82 61.5313 452.902 49.7256 451.722 37.92C450.41 24.8026 443.982 12.9314 439.326 0.601091C434.407 -12.3851 431.521 -27.4701 438.67 -39.6692C443.392 -47.802 451.918 -53.1801 461.363 -53.9672C471.07 -54.8198 481.367 -51.6061 488.122 -44.5883C491.205 -41.3745 493.304 -37.0458 493.041 -32.6514C492.451 -24.3219 484.187 -18.747 480.711 -11.139C477.169 -3.46529 478.743 5.71688 482.482 13.2594C486.22 20.8019 491.926 27.2294 496.911 33.9848C501.961 40.7402 506.487 48.3483 507.274 56.7435C508.52 69.0738 501.633 80.6827 499.731 92.8818C497.239 108.623 503.929 125.347 516.062 135.579" stroke="#AF1143" stroke-width="3" stroke-miterlimit="10" stroke-linecap="round"/>
<path d="M171.602 -69.3136C187.409 -74.8229 204.855 -72.7897 218.89 -63.7387C226.564 -58.7541 234.238 -53.7695 241.846 -48.7193C256.668 -38.8157 271.688 -28.6497 288.609 -23.206C297.267 -20.4513 307.564 -19.2052 314.647 -24.8457C320.55 -29.5023 322.517 -37.8319 321.665 -45.3088C320.55 -54.6877 315.762 -63.1484 311.04 -71.3468C303.956 -83.6115 296.873 -95.8107 289.79 -108.075C286.838 -109.781 287.035 -114.765 289.79 -116.733C292.544 -118.7 296.48 -118.045 299.3 -116.143C302.12 -114.241 304.022 -111.355 305.793 -108.535C309.335 -103.025 312.876 -97.5159 316.484 -92.0722C325.272 -78.4301 334.192 -64.6569 339.373 -49.244C344.555 -33.8967 345.735 -16.5161 339.177 -1.69351C334.782 8.21011 332.552 20.2781 324.288 27.2959C319.041 31.7558 312.352 34.1825 305.596 35.4943C297.332 37.1339 288.543 37.1339 280.87 33.7234C273.196 30.3129 267.293 23.7542 263.161 16.4741C259.029 9.19392 256.537 1.12673 254.045 -6.87487C248.208 -25.6983 231.024 -40.2586 213.315 -48.9161C195.672 -57.5735 173.373 -58.0982 156.845 -47.5387C136.71 -34.6181 110.278 -33.8966 87.9132 -25.4359C76.3044 -21.0416 63.7773 -15.4012 58.3991 -4.1858C55.1198 2.63523 55.0542 10.5056 53.6769 17.9826C49.6105 40.6756 32.4267 60.5484 10.5863 67.8942C-10.9918 75.1743 -27.1917 94.2601 -33.0946 116.232C-32.0452 118.724 -36.3083 121.872 -38.9974 121.807C-41.6864 121.741 -43.9164 119.38 -44.6378 116.822C-45.3593 114.264 -44.9002 111.444 -44.2443 108.886C-39.3909 90.5872 -24.1747 77.0107 -8.89299 65.861C6.38875 54.7112 23.0478 44.2829 33.4105 28.4765C37.7393 21.9178 34.7879 14.6376 35.7717 6.83278C36.8866 -1.95586 42.5927 -9.62952 49.5449 -15.0732C56.4971 -20.5169 64.7611 -23.993 72.9594 -27.2724C81.1578 -30.5517 89.4873 -33.7655 96.7675 -38.7501C118.083 -53.3104 143.793 -59.2132 168.06 -68.0018C169.307 -68.5265 170.487 -68.92 171.602 -69.3136Z" stroke="#AF1143" stroke-width="1.5" stroke-miterlimit="10" stroke-linecap="round"/>
<path d="M-139.938 179.392C-108.784 176.178 -76.8429 172.308 -49.69 156.961C-36.9661 149.746 -25.6852 140.236 -13.1581 132.759C24.6855 110.132 73.8757 107.771 113.687 126.725C119.721 129.546 126.739 133.153 128.313 139.646C129.887 146.139 128.313 152.894 126.345 159.256C124.378 165.618 121.951 171.98 121.82 178.604C121.426 196.051 122.935 213.956 128.51 230.549C130.018 235.009 131.92 239.666 135.921 242.158C140.512 245.11 146.48 244.257 151.793 243.011C157.105 241.765 162.746 240.191 167.927 241.896C176.322 244.716 184.98 247.93 191.932 253.439C196.589 257.112 200.721 261.572 203.082 266.95C205.443 272.328 205.836 278.821 203.213 284.068C200.59 289.315 194.556 293.054 188.718 292.07C182.881 291.152 178.159 284.986 179.602 279.215C180.454 275.607 175.339 271.869 172.059 270.164C168.78 268.393 164.976 267.999 161.303 267.737C147.727 266.95 133.953 268.918 121.164 273.509C117.425 274.82 113.031 274.099 110.539 270.951C108.046 267.803 107.325 263.671 106.604 259.735C100.504 227.86 88.2392 197.231 70.6619 169.947C58.7251 151.451 30.1948 153.55 8.68235 158.207C-12.8301 162.864 -32.6374 173.095 -53.3628 180.507C-81.1061 190.607 -110.555 195.46 -139.938 195.001" stroke="#AF1143" stroke-width="1.5" stroke-miterlimit="10" stroke-linecap="round"/>
<path d="M-11.3863 142.139C6.91245 134.99 25.7359 128.694 45.2808 126.464C65.4159 124.168 86.5349 126.464 104.375 136.171C108.9 138.663 113.426 141.811 115.524 146.599C118.476 153.289 115.918 160.962 113.36 167.783C110.146 176.31 113.885 186.673 114.016 195.724C114.081 198.413 114.081 201.102 113.032 203.594C111.261 207.791 106.277 210.415 101.817 209.366C97.3567 208.382 94.0118 203.856 94.2086 199.331C94.8644 187.394 86.4693 175.588 78.4021 166.8C78.0742 166.406 77.7463 166.078 77.3527 165.685C67.318 155.388 53.3479 149.944 39.05 150.206C22.9156 150.469 6.38776 150.272 -9.54985 150.797H-9.61544C-14.6 150.862 -15.9774 143.975 -11.3863 142.139Z" stroke="#AF1143" stroke-width="1.5" stroke-miterlimit="10" stroke-linecap="round"/>
<path d="M-139.938 211.989C-105.439 214.153 -70.0219 215.531 -37.5564 203.856C-24.7014 199.199 -12.5678 192.641 0.287232 187.918C13.1423 183.196 27.309 180.573 40.5576 184.114C55.8393 188.246 68.1696 200.511 74.7939 214.875C81.4838 229.238 82.9923 245.569 82.0085 261.376C81.1558 274.69 78.598 288.004 80.4344 301.253C81.4182 308.27 90.2724 312.533 97.3558 312.468C104.439 312.402 110.998 308.992 116.835 305.057C122.672 301.056 127.985 296.399 134.216 292.989C143.398 288.004 155.663 290.955 163.926 297.383C172.19 303.81 177.109 313.648 180.389 323.618C183.143 331.947 198.491 329.848 205.049 324.011C208.132 321.322 210.165 317.649 212.592 314.37C215.019 311.091 218.167 307.942 222.168 307.221C225.972 306.5 229.972 308.074 232.989 310.5C236.006 312.927 238.236 316.206 240.401 319.42C246.566 328.471 259.88 328.93 270.767 327.815C281.655 326.635 292.018 321.06 298.904 312.533C305.594 304.27 308.873 293.71 310.71 283.151C312.546 272.657 313.071 261.966 315.039 251.472C319.63 227.139 346.389 212.251 370.787 208.119C382.855 206.02 395.317 206.873 407.451 204.971C420.896 202.938 433.816 197.494 444.769 189.493C447.524 187.525 450.41 185.361 452.771 182.868C454.673 180.835 455.657 178.277 457.624 176.178C461.691 171.718 468.184 169.423 474.152 170.8C478.809 171.85 482.81 174.801 487.007 177.097C495.796 181.884 506.028 183.786 515.931 182.671" stroke="#AF1143" stroke-width="3" stroke-miterlimit="10" stroke-linecap="round"/>
<path d="M-139.938 224.256C-94.8137 231.798 -47.3288 225.043 -6.1403 204.973C4.48478 199.792 15.241 193.627 27.0467 193.233C44.8863 192.643 61.0862 206.023 68.0385 222.485C74.9251 238.947 74.0068 257.705 70.1372 275.086C68.2352 283.481 65.6773 292.073 66.9891 300.599C69.0878 314.307 82.2708 325.391 96.1752 325.063C114.146 324.604 131.067 335.491 144.054 347.887C159.794 362.906 162.943 386.649 173.437 405.669C176.388 411.047 184.324 410.391 186.423 404.62C186.423 404.554 186.488 404.554 186.488 404.488C188.718 398.389 190.948 392.289 193.113 386.19C195.277 380.221 196.917 373.531 199.737 367.891C204.066 359.299 216.986 357.135 225.513 356.413C234.826 355.626 244.664 355.889 253.059 351.757C258.044 349.33 262.241 345.526 266.635 342.115C271.03 338.705 275.883 335.557 281.393 334.704C294.772 332.671 303.692 321.259 309.333 308.928C314.973 296.598 317.137 283.087 320.482 269.97C323.827 256.852 328.681 243.538 338.387 234.094C348.094 224.649 361.54 220.058 374.919 217.828C388.299 215.664 401.876 215.598 415.321 213.762C435.128 211.007 454.148 204.252 473.496 199.136C487.401 195.398 501.764 192.512 516.128 192.512" stroke="#AF1143" stroke-width="1.5" stroke-miterlimit="10" stroke-linecap="round"/>
<path d="M-139.938 295.676C-126.623 288.855 -115.736 277.378 -109.833 263.67C-106.816 256.652 -104.783 248.782 -98.9457 243.863C-94.3546 239.993 -88.1895 238.747 -82.2866 237.632C-62.8729 233.959 -39.7208 236.583 -23.9143 224.711C-16.503 219.137 -9.02612 213.562 -0.762175 209.364C7.50177 205.167 16.7495 202.478 25.9973 203.133C34.8515 203.724 43.4434 207.462 49.8709 213.496C66.4644 228.909 64.9559 254.094 60.8239 274.426C59.2498 282.034 57.0199 289.511 56.1016 297.185C55.1834 304.859 55.7081 312.991 59.4466 319.812C63.185 326.633 71.0554 332.733 78.7947 332.077C97.8149 335.619 115.786 344.801 129.756 358.246C138.61 366.707 145.824 376.873 151.071 387.957C155.794 397.992 157.63 408.814 165.173 417.34C168.124 420.685 172.256 423.177 176.716 423.505C183.012 423.964 188.981 419.964 192.653 414.848C196.326 409.732 198.228 403.567 200.13 397.533C202.032 391.499 204.066 385.334 208.066 380.48C213.313 374.053 221.971 369.134 230.3 370.052C253.19 372.61 275.555 360.476 291.952 344.276C314.711 321.78 329.009 290.298 333.337 258.554C334.78 248.192 343.241 239.993 352.817 235.861C362.392 231.729 373.017 230.877 383.38 229.893C428.176 225.63 472.513 217.235 515.8 204.97" stroke="#AF1143" stroke-width="1.5" stroke-miterlimit="10" stroke-linecap="round"/>
</g>
</g>
<defs>
<clipPath id="clip0_6854_6255">
<rect width="376" height="204" fill="white"/>
</clipPath>
</defs>
</svg>
