<svg width="2040" height="617" viewBox="0 0 2040 617" fill="none" xmlns="http://www.w3.org/2000/svg">
<path d="M129.133 510.237C61.4902 510.237 10.9525 475.34 10.9525 437.687V395.925H14.3572C34.1703 414.421 81.3033 430.862 125.031 430.862C168.759 430.862 191.977 417.875 191.977 390.457C191.977 369.249 179.014 358.972 115.473 350.053C37.5748 339.078 0 308.291 0 252.143C0 183.006 62.1875 124.145 156.453 124.145C239.807 124.145 273.977 167.263 273.977 202.859V237.757H270.573C251.457 218.602 209.083 203.517 165.355 203.517C109.32 203.517 91.5582 220.616 91.5582 244.58C91.5582 263.077 102.511 270.599 165.355 280.875C241.858 293.206 282.879 326.747 282.879 385.607C282.879 463.665 228.239 510.193 129.174 510.193L129.133 510.237Z" fill="white"/>
<path d="M611.273 293.105C586.608 360.645 545.537 449.321 504.47 505.271H486.669C459.289 505.271 444.904 495.726 426.401 468.446C376.413 392.717 313.433 232.405 305.211 132.835H354.502C385.992 132.835 405.849 156.714 409.261 176.497C422.252 244.692 440.751 315.632 479.761 391.364C514.666 322.472 546.853 224.909 560.545 132.835H599.555C631.048 132.835 642.679 146.474 642.679 176.497C642.679 187.391 633.759 231.749 611.19 293.146L611.273 293.105Z" fill="white"/>
<path d="M744.072 107.064C714.857 107.064 691.07 82.499 691.07 53.1842C691.07 23.8694 714.857 0 744.072 0C773.288 0 797.769 23.8694 797.769 53.1842C797.769 82.499 773.288 107.064 744.072 107.064ZM790.261 505.271C719.588 505.271 699.188 483.528 699.188 390.016V141.128H725.017C765.777 141.128 790.261 162.951 790.261 209.297V381.133" fill="white"/>
<path d="M1053.93 509.115C1013.03 509.115 979.634 485.915 961.211 454.518V617H932.595C899.888 617 868.489 593.105 868.489 553.506V330.977C868.489 208.788 923.017 124.145 1052.58 124.145C1150.1 124.145 1219.6 212.887 1219.6 305.727C1219.6 423.817 1160.98 509.159 1053.93 509.159V509.115ZM1038.25 205.345C987.777 205.345 959.859 249.039 959.859 312.531C959.859 386.272 996.007 427.918 1050.54 427.918C1094.87 427.918 1125.53 388.319 1125.53 329.624C1125.53 242.932 1096.92 205.386 1038.25 205.386V205.345Z" fill="white"/>
<path d="M1458.4 509.115C1417.5 509.115 1384.1 485.915 1365.68 454.518V617H1337.06C1304.35 617 1272.95 593.105 1272.95 553.506V330.977C1272.95 208.788 1327.48 124.145 1457.05 124.145C1554.56 124.145 1624.07 212.887 1624.07 305.727C1624.07 423.817 1565.45 509.159 1458.4 509.159V509.115ZM1442.72 205.345C1392.25 205.345 1364.33 249.039 1364.33 312.531C1364.33 386.272 1400.47 427.918 1455 427.918C1499.34 427.918 1530 388.319 1530 329.624C1530 242.932 1501.38 205.386 1442.72 205.386V205.345Z" fill="white"/>
<path d="M1731.34 464.312C1704.77 534.826 1699.2 546.211 1691.44 564.414C1683.67 582.617 1715.47 554.49 1737.66 536.797C1763.54 516.168 1787.2 501.22 1787.2 501.22C1787.2 501.22 1774.29 494.982 1763.3 488.96C1748.86 481.054 1731.34 464.312 1731.34 464.312Z" fill="white" fill-opacity="0.71"/>
<path d="M1702.45 426.023C1667.96 490.059 1622 533.441 1610.77 542.913C1599.55 552.389 1660.18 534.002 1685.19 520.638C1713.34 505.596 1753.86 483.618 1753.86 483.618C1753.86 483.618 1737.71 470.717 1727.63 459.947C1716.36 447.911 1702.45 426.023 1702.45 426.023Z" fill="white" fill-opacity="0.71"/>
<path d="M1986.14 146.552C1978.57 147.788 1960.97 156.661 1960.97 156.661C1960.97 156.661 2015.14 378.204 2032.35 308.81C2037.5 269.198 2038.01 173.573 2034.47 146.126C2010.25 139.743 2000.4 144.226 1986.14 146.552Z" fill="white" fill-opacity="0.58"/>
<path d="M2033.84 316.489C2034.81 427.563 1967.48 514.905 1857.64 515.871C1743.42 516.869 1673.49 433.954 1676.88 319.617C1675.91 208.543 1753.46 117.813 1854.15 116.93C1972.77 115.891 2032.87 205.415 2033.84 316.489ZM1772.44 318.78C1773.07 391.314 1801.04 432.833 1856.91 432.345C1918.42 431.806 1941.08 385.444 1940.48 317.307C1939.89 249.169 1910.82 207.658 1854.95 208.148C1789.05 208.726 1771.9 257.154 1772.44 318.78Z" fill="white"/>
<path d="M1877.67 305.825C1892.23 305.697 1903.91 291.817 1903.76 274.822C1903.61 257.827 1891.69 244.153 1877.13 244.281C1862.57 244.408 1850.89 258.289 1851.04 275.284C1851.19 292.279 1863.11 305.953 1877.67 305.825Z" fill="white"/>
</svg>
