<svg width="5644" height="1706" viewBox="0 0 5644 1706" fill="none" xmlns="http://www.w3.org/2000/svg">
<path d="M357.269 1410.8C170.123 1410.8 30.302 1314.31 30.302 1210.2V1094.73H39.7217C94.5377 1145.87 224.939 1191.33 345.92 1191.33C466.901 1191.33 531.136 1155.42 531.136 1079.61C531.136 1020.97 495.273 992.556 319.476 967.893C103.957 937.548 0 852.422 0 697.173C0 506.01 172.052 343.26 432.853 343.26C663.467 343.26 758.004 462.481 758.004 560.904V657.395H748.585C695.698 604.433 578.462 562.722 457.481 562.722C302.453 562.722 253.311 610.002 253.311 676.261C253.311 727.405 283.613 748.203 457.481 776.616C669.141 810.712 782.632 903.452 782.632 1066.2C782.632 1282.03 631.462 1410.68 357.382 1410.68L357.269 1410.8Z" fill="#066696"/>
<path d="M1691.19 810.433C1622.95 997.182 1509.32 1242.37 1395.7 1397.07H1346.45C1270.7 1397.07 1230.9 1370.68 1179.71 1295.25C1041.41 1085.86 867.165 642.597 844.418 367.288H980.788C1067.91 367.288 1122.85 433.312 1132.29 488.012C1168.23 676.572 1219.41 872.721 1327.34 1082.12C1423.91 891.633 1512.96 621.873 1550.84 367.288H1658.77C1745.9 367.288 1778.08 405 1778.08 488.012C1778.08 518.136 1753.4 640.785 1690.96 810.547L1691.19 810.433Z" fill="#066696"/>
<path d="M2058.6 296.032C1977.77 296.032 1911.96 228.109 1911.96 147.054C1911.96 65.9987 1977.77 0 2058.6 0C2139.43 0 2207.16 65.9987 2207.16 147.054C2207.16 228.109 2139.43 296.032 2058.6 296.032ZM2186.39 1397.07C1990.86 1397.07 1934.42 1336.95 1934.42 1078.39V390.219H2005.88C2118.65 390.219 2186.39 450.557 2186.39 578.705V1053.83" fill="#066696"/>
<path d="M2915.88 1407.7C2802.73 1407.7 2710.32 1343.55 2659.35 1256.74V1706H2580.18C2489.69 1706 2402.82 1639.93 2402.82 1530.44V915.148C2402.82 577.296 2553.68 343.26 2912.14 343.26C3181.93 343.26 3374.24 588.63 3374.24 845.334C3374.24 1171.85 3212.05 1407.82 2915.88 1407.82V1407.7ZM2872.5 567.776C2732.85 567.776 2655.61 688.591 2655.61 864.147C2655.61 1068.04 2755.62 1183.19 2906.48 1183.19C3029.14 1183.19 3113.97 1073.7 3113.97 911.408C3113.97 671.705 3034.8 567.89 2872.5 567.89V567.776Z" fill="#066696"/>
<path d="M4034.91 1407.7C3921.76 1407.7 3829.34 1343.55 3778.37 1256.74V1706H3699.21C3608.71 1706 3521.84 1639.93 3521.84 1530.44V915.148C3521.84 577.296 3672.7 343.26 4031.17 343.26C4300.95 343.26 4493.27 588.63 4493.27 845.334C4493.27 1171.85 4331.08 1407.82 4034.91 1407.82V1407.7ZM3991.53 567.776C3851.88 567.776 3774.64 688.591 3774.64 864.147C3774.64 1068.04 3874.64 1183.19 4025.51 1183.19C4148.17 1183.19 4233 1073.7 4233 911.408C4233 671.705 4153.83 567.89 3991.53 567.89V567.776Z" fill="#066696"/>
<path d="M4790.04 1283.82C4716.53 1478.79 4701.13 1510.27 4679.64 1560.6C4658.15 1610.93 4746.14 1533.16 4807.53 1484.24C4879.13 1427.2 4944.58 1385.87 4944.58 1385.87C4944.58 1385.87 4908.87 1368.62 4878.46 1351.97C4838.52 1330.11 4790.04 1283.82 4790.04 1283.82Z" fill="url(#paint0_linear_5060_64)"/>
<path d="M4710.12 1177.95C4614.69 1355.01 4487.52 1474.96 4456.47 1501.15C4425.42 1527.35 4593.16 1476.51 4662.36 1439.56C4740.25 1397.97 4852.34 1337.2 4852.34 1337.2C4852.34 1337.2 4807.67 1301.53 4779.77 1271.75C4748.6 1238.47 4710.12 1177.95 4710.12 1177.95Z" fill="url(#paint1_linear_5060_64)" fill-opacity="0.56"/>
<path d="M5495 405.215C5474.05 408.632 5425.35 433.167 5425.35 433.167C5425.35 433.167 5575.21 1045.73 5622.84 853.858C5637.08 744.331 5638.49 479.927 5628.71 404.038C5561.7 386.387 5534.45 398.782 5495 405.215Z" fill="url(#paint2_linear_5060_64)" fill-opacity="0.45"/>
<path d="M5626.96 875.09C5629.65 1182.21 5443.35 1423.71 5139.48 1426.38C4823.45 1429.14 4629.98 1199.88 4639.37 883.74C4636.68 576.621 4851.23 325.752 5129.82 323.312C5458 320.438 5624.27 567.97 5626.96 875.09ZM4903.74 881.425C4905.5 1081.98 4982.89 1196.78 5137.45 1195.43C5307.62 1193.94 5370.32 1065.75 5368.67 877.353C5367.02 688.951 5286.59 574.174 5132.03 575.528C4949.7 577.125 4902.25 711.029 4903.74 881.425Z" fill="#E85D46"/>
<ellipse cx="5194.14" cy="760.519" rx="72.9326" ry="85.088" transform="rotate(-0.501837 5194.14 760.519)" fill="#066696"/>
<defs>
<linearGradient id="paint0_linear_5060_64" x1="4802.92" y1="1311.79" x2="4690.07" y2="1582.58" gradientUnits="userSpaceOnUse">
<stop stop-color="#E85D46" stop-opacity="0.54"/>
<stop offset="1" stop-color="#E85D46" stop-opacity="0.6"/>
</linearGradient>
<linearGradient id="paint1_linear_5060_64" x1="4678.44" y1="1211.47" x2="4606.43" y2="1511.78" gradientUnits="userSpaceOnUse">
<stop stop-color="#E85D46" stop-opacity="0.55"/>
<stop offset="1" stop-color="#E85D46" stop-opacity="0.6"/>
</linearGradient>
<linearGradient id="paint2_linear_5060_64" x1="5595.13" y1="394.748" x2="5438.95" y2="504.591" gradientUnits="userSpaceOnUse">
<stop stop-color="#E85D46"/>
<stop offset="1" stop-color="#E85D46" stop-opacity="0.47"/>
</linearGradient>
</defs>
</svg>
